<svg width="280" height="280" viewBox="0 0 280 280" fill="none" xmlns="http://www.w3.org/2000/svg">
<path d="M140 0C62.68 0 0 62.68 0 140C0 217.32 62.68 280 140 280C217.319 280 280 217.32 280 140C280 62.68 217.32 0 140 0ZM164.41 238.36C110.087 238.36 66.05 194.323 66.05 140.001C66.05 85.679 110.087 41.641 164.41 41.641C218.732 41.641 262.768 85.679 262.768 140.001C262.768 194.323 218.728 238.361 164.408 238.361L164.41 238.36V238.36Z" fill="url(#paint0_linear_6:5)"/>
<path d="M163.69 230.46C213.652 230.46 254.152 189.96 254.152 139.999C254.152 90.038 213.652 49.538 163.69 49.538C113.729 49.538 73.228 90.038 73.228 139.999C73.228 189.96 113.728 230.459 163.688 230.459L163.69 230.46V230.46ZM147.92 76.44C183.022 76.44 211.476 104.895 211.476 139.996C211.476 175.098 183.022 203.553 147.92 203.553C112.819 203.553 84.365 175.098 84.365 139.996C84.375 104.896 112.825 76.436 147.925 76.436L147.92 76.44Z" fill="#02047A"/>
<path d="M149.77 82.38C117.944 82.38 92.145 108.179 92.145 140.005C92.145 171.832 117.944 197.63 149.77 197.63C181.597 197.63 207.397 171.832 207.397 140.005C207.397 108.175 181.597 82.385 149.777 82.385L149.77 82.38ZM159.81 180.49C137.451 180.49 119.325 162.364 119.325 140.003C119.325 117.643 137.451 99.517 159.81 99.517C182.169 99.517 200.31 117.647 200.31 140.007C200.31 162.367 182.18 180.497 159.82 180.497L159.81 180.49Z" fill="#061154"/>
<path d="M159.9 174.42C178.908 174.42 194.319 159.01 194.319 140C194.319 120.989 178.908 105.58 159.9 105.58C140.89 105.58 125.479 120.989 125.479 140C125.479 159.01 140.889 174.42 159.899 174.42H159.9ZM153.9 115.82C167.255 115.82 178.082 126.648 178.082 140.004C178.082 153.359 167.256 164.188 153.9 164.188C140.544 164.188 129.718 153.36 129.718 140.004C129.718 126.644 140.538 115.824 153.898 115.824L153.9 115.82Z" fill="#070C42"/>
<path d="M153.29 119.81C142.143 119.81 133.105 128.847 133.105 139.996C133.105 151.144 142.142 160.181 153.29 160.181C164.439 160.181 173.477 151.144 173.477 139.996C173.487 128.846 164.447 119.806 153.297 119.806L153.29 119.81ZM156.81 154.18C148.978 154.18 142.628 147.831 142.628 139.998C142.628 132.166 148.978 125.815 156.81 125.815C164.642 125.815 170.991 132.166 170.991 139.998C170.991 147.828 164.641 154.178 156.811 154.178L156.81 154.18Z" fill="#030621"/>
<defs>
<linearGradient id="paint0_linear_6:5" x1="0" y1="140" x2="280" y2="140" gradientUnits="userSpaceOnUse">
<stop stop-color="#001495" stop-opacity="0.98824"/>
</linearGradient>
</defs>
</svg>
